    <svg xmlns="http://www.w3.org/2000/svg" viewBox="0 0 68.8 68.8">
          <title>Logo Slabcode</title>
          <g id="logo_general_layer" data-name="Capa 2">
            <g id="logo_inner_layer" data-name="Capa 1">
              <path
                d="M9.44,12.88q0-5.33,5.25-5.32T20,12.88v3.41H16.29V12.88c0-1.14-.53-1.71-1.59-1.72h0c-1,0-1.58.58-1.58,1.72v2.3q0,1.7,3.42,4.15T20,25.18v3.21q0,5.33-5.25,5.33c-3.5,0-5.26-1.79-5.26-5.33V25H13.1v3.42c0,1.14.54,1.71,1.6,1.71s1.59-.57,1.59-1.71v-2.9q0-1.83-3.42-4.29c-2.28-1.63-3.43-3.61-3.43-5.94Z"
              />
              <path d="M23.05,33.31V8H26.7V29.7h5.83v3.61Z" />
              <path
                d="M45.29,24.25l1.16,9H42.83l-.7-5.35H38.47l-.71,5.35H34.15l1.17-8.91L37.85,8h4.92Zm-3.63,0L40.3,13.75l-1.37,10.5Z"
              />
              <path
                d="M20,55.9q0,5.33-5.26,5.34T9.44,55.9V40.4q0-5.32,5.25-5.32T20,40.4v3.41H16.29V40.4c0-1.14-.53-1.71-1.59-1.72h0c-1,0-1.58.57-1.58,1.72V55.9c0,1.15.53,1.72,1.59,1.72s1.6-.57,1.6-1.72V52.49H20Z"
              />
              <path
                d="M36.27,35.48H41.9c3.25,0,4.87,1.78,4.87,5.33V55.5c0,3.54-1.7,5.32-5.1,5.32h-5.4Zm3.65,3.6V57.22h1.6c1.06,0,1.59-.57,1.59-1.72V40.81c0-1.15-.53-1.73-1.59-1.73Z"
              />
              <path
                d="M49.87,35.48h9.48v3.6H53.53v7.26h5V50h-5v7.26h5.82v3.6H49.87Z"
              />
              <path
                d="M26.09,60.82l-4.74-11h3.89l2.35,6.6L30,49.79h3.7l-4.59,11Z"
              />
              <path
                d="M29.14,35.48l4.59,11H30l-2.44-6.6L25,46.51H21.35l4.74-11Z"
              />
              <path
                d="M58.81,17.11V13.3Q58.81,8,53.94,8H48.31V33.31h5.4q5.1,0,5.1-5.33V24.16a3.66,3.66,0,0,0-2-3.53A3.64,3.64,0,0,0,58.81,17.11ZM51.6,12.89h3.3v3.3H51.6ZM55.17,26l-1.1,3.72H52.21l.59-3.33H51.6V23.1h3.57Z"
              />
              <polygon
                points="2.28 66.52 2.28 2.28 12.87 2.28 12.87 0 0 0 0 68.8 12.87 68.8 12.87 66.52 2.28 66.52"
              />
              <polygon
                points="68.8 0 55.93 0 55.93 2.28 66.52 2.28 66.52 66.52 55.93 66.52 55.93 68.8 68.8 68.8 68.8 0"
              />
            </g>
          </g>
        </svg>